<?xml version="1.0" encoding="UTF-8" standalone="no"?>

<svg 
   xmlns="http://www.w3.org/2000/svg"
   width="300mm"
   height="300mm"
   viewBox="0 0 300 300"
   version="1.1"
>
    <g
       transform="matrix(0.26458333,0,0,0.26458333,-2.5796875,54.923253)">
      <g
         transform="matrix(0.1,0,0,-0.1,0,511)">
        <path
           id="path3712"
           d="m 3906.2,3972.5 c 0,-275.6 4.4,-284.4 109.4,-284.4 61.2,0 161.9,-48.1 218.8,-109.4 l 109.4,-105 
		   V 1986.2 503.1 L 4125,560 
		   c -118.1,30.6 -315,70 -437.5,87.5 l -218.8,30.6 
		   v 892.5 892.5 h -175 -175 
		   V 1592.5 726.2 L 2672.5,700 
		   C 2186.9,673.7 1893.8,590.6 1727.5,437.5 1548.1,271.2 1307.5,-266.9 1154.4,-848.8 1115,-997.5 1066.9,-1050 900.6,-1150.6 419.4,-1430.6 100,-1868.1 100,-2240 
		   c 4.4,-739.4 1058.8,-1413.1 2690.6,-1710.6 669.4,-122.5 2310,-113.8 3171.9,21.9 1093.8,166.2 2130.6,455 2730,756.9 236.2,122.5 262.5,122.5 301.8,56.9 157.5,-280 581.9,-590.6 809.4,-590.6 
		   H 9900 
		   V -1413 883.7 
		   L 9764.4,844.3 
		   C 9326.9,717.5 8920,-4.4 8718.7,-1001.9 
		   c -26.2,-140 -56.9,-253.7 -61.3,-253.7 -8.7,0 -131.3,52.5 -271.2,113.7 -551.3,245 -1710.7,525 -2655.6,643.1 -258.1,35 -476.9,70 -485.7,78.7 -4.4,8.8 -74.3,109.4 -148.7,218.8 
		   L 4960.6,0 4947.5,1789.4 
		   c -13.1,1736.9 -17.5,1793.7 -109.4,1964.4 -166.2,315 -459.4,503.1 -778.7,503.1 
		   H 3906.3 
		   V 3972.5 
		   Z M 1889.4,-1601.3 
		   c 328.1,-231.9 148.7,-748.1 -258.1,-748.1 -380.6,0 -568.8,406.9 -328.1,695.6 161.8,192.5 367.4,210 586.2,52.5 z m 1351.8,78.8 
		   c 175,-61.3 271.3,-214.4 271.3,-428.8 0,-227.5 -188.1,-398.1 -433.1,-398.1 -437.5,0 -568.8,603.7 -179.4,796.3 179.4,91.8 170.6,91.8 341.2,30.6 z m 1645,-135.7 
		   c 105,-118.1 122.5,-157.5 100.6,-315 -70,-507.5 -778.8,-507.5 -848.8,0 -17.5,144.4 -4.4,196.9 91.9,310.7 188.2,223.1 446.4,223.1 656.3,4.3 z m 1365,118.2 
		   c 175,-70 297.5,-306.3 253.8,-481.3 -122.5,-481.3 -853.1,-402.5 -848.8,96.3 4.4,192.5 65.6,288.7 245,385 157.6,78.7 161.9,78.7 350,0 z m 1561.9,-113.7 
		   c 166.2,-179.4 161.9,-393.8 -8.8,-568.8 -135.6,-135.7 -363.1,-170.6 -533.7,-83.1 -210,113.7 -266.9,511.9 -91.9,669.4 205.7,188 446.3,179.3 634.4,-17.5 z"
           style="fill:#ffff00;stroke:#000000;stroke-width:5;stroke-linecap:round;stroke-dasharray:5, 5" />
      </g>
    </g>
</svg>
